<svg class="svg-icon" xmlns="http://www.w3.org/2000/svg" xmlns:xlink="http://www.w3.org/1999/xlink" version="1.1" x="0px" y="0px" viewBox="0 0 64 80" style="enable-background:new 0 0 64 64;" xml:space="preserve"><g><polygon points="32.586,43 28.586,39 27.414,39 23.414,43 28,47.586  "/><polygon points="36.586,39 31.414,39 34,41.586  "/><polygon points="44.586,43 40.586,39 39.414,39 35.414,43 40,47.586  "/><path d="M27.061,21.219c0.264,3.686,1.694,7.05,3.941,9.716c1.291-2.733,2.812-5.32,4.542-7.744   C32.797,21.366,29.679,20.612,27.061,21.219z"/><path d="M37.135,24.403c-1.791,2.516-3.348,5.214-4.645,8.072c2.457,2.268,5.576,3.816,9.038,4.324   c1.296-3.493-0.131-8.188-3.636-11.692C37.647,24.861,37.393,24.629,37.135,24.403z"/><path d="M30.182,33H4c-0.551,0-1,0.448-1,1v2c0,0.552,0.449,1,1,1h31.565C33.538,35.99,31.719,34.633,30.182,33z"/><path d="M45.844,12.532c-1.748-3.147-2.289-6.6-1.41-9.511C44.289,3.019,44.146,3,44,3c-4.328,0-8.271,1.639-11.275,4.312   l8.873,8.872C42.943,14.892,44.358,13.67,45.844,12.532z"/><polygon points="15.414,39 11.414,43 16,47.586 20.586,43 16.586,39  "/><path d="M54.935,7.002c-2.36-1.988-5.27-3.333-8.463-3.802c-0.894,2.406-0.488,5.382,0.994,8.148   C49.81,9.698,52.306,8.244,54.935,7.002z"/><path d="M36.736,21.586c1.079-1.392,2.23-2.721,3.447-3.988l-8.873-8.872c-2.503,2.814-4.08,6.456-4.27,10.463   C30.117,18.63,33.657,19.522,36.736,21.586z"/><polygon points="24.586,39 19.414,39 22,41.586  "/><path d="M50.107,14.893c3.177,3.177,7.428,4.677,10.831,3.889c-0.283-3.959-1.923-7.539-4.462-10.289   c-2.809,1.273-5.464,2.799-7.942,4.551C49,13.685,49.521,14.307,50.107,14.893z"/><path d="M35.414,55L40,59.586l3.187-3.188c0.08-0.833,0.181-1.662,0.312-2.485L40,50.414L35.414,55z"/><path d="M41.414,49l2.54,2.54c0.529-2.377,1.278-4.695,2.237-6.935L46,44.414L41.414,49z"/><path d="M43.383,38.969l3.695,3.694c0.772-1.563,1.657-3.079,2.639-4.545C47.911,38.688,45.992,39,44,39   C43.791,39,43.59,38.976,43.383,38.969z"/><path d="M59.105,20.982c-3.539,0-7.421-1.685-10.412-4.676c-0.657-0.657-1.242-1.356-1.767-2.08   c-1.367,1.054-2.671,2.181-3.914,3.372l13.676,13.676c2.502-2.814,4.079-6.455,4.27-10.462   C60.356,20.922,59.737,20.982,59.105,20.982z"/><path d="M38.329,22.797c0.334,0.285,0.663,0.581,0.978,0.896c3.887,3.888,5.51,9.14,4.259,13.285C43.711,36.981,43.853,37,44,37   c4.328,0,8.27-1.639,11.275-4.312L41.599,19.013C40.445,20.216,39.353,21.478,38.329,22.797z"/><path d="M6.86,39c0.753,1.19,1.444,2.411,2.062,3.663L12.586,39H6.86z"/><path d="M12.5,53.913c0.131,0.823,0.232,1.651,0.312,2.484L16,59.586L20.586,55L16,50.414L12.5,53.913z"/><path d="M10,44.414l-0.191,0.191c0.959,2.239,1.708,4.558,2.237,6.935l2.54-2.54L10,44.414z"/><rect x="18.757" y="45.757" transform="matrix(0.7071 -0.7071 0.7071 0.7071 -28.2046 29.9081)" width="6.485" height="6.485"/><rect x="30.757" y="45.757" transform="matrix(0.7071 -0.7071 0.7071 0.7071 -24.6899 38.3934)" width="6.485" height="6.485"/><rect x="24.757" y="51.757" transform="matrix(0.7071 -0.7071 0.7071 0.7071 -30.6899 35.9081)" width="6.485" height="6.485"/></g><text x="0" y="79" fill="#000000" font-size="5px" font-weight="bold" font-family="'Helvetica Neue', Helvetica, Arial-Unicode, Arial, Sans-serif">Created by Eucalyp</text><text x="0" y="84" fill="#000000" font-size="5px" font-weight="bold" font-family="'Helvetica Neue', Helvetica, Arial-Unicode, Arial, Sans-serif">from the Noun Project</text></svg>