<svg class="svg-icon" xmlns="http://www.w3.org/2000/svg" xmlns:xlink="http://www.w3.org/1999/xlink" version="1.1" x="0px" y="0px" viewBox="0 0 98 122.5" enable-background="new 0 0 98 98" xml:space="preserve"><g><path d="M87.134,35.9687H56.6991v38.6566H87.134V35.9687z M80.8604,54.3457v1.901v14.1544h-16.939v-1.901h15.0381V56.2467H63.9213   v-1.901h15.0381V42.0923H63.9213v-1.901h16.939V54.3457z"/><path d="M41.2916,18.6222H10.8663v9.5334h30.4254V18.6222z M17.6812,24.3411h-1.901v-1.901h1.901V24.3411z M21.4832,24.3411h-1.901   v-1.901h1.901V24.3411z M25.2852,24.3411h-1.901v-1.901h1.901V24.3411z M29.0872,24.3411h-1.901v-1.901h1.901V24.3411z    M32.8892,24.3411h-1.901v-1.901h1.901V24.3411z M36.3802,24.3411h-1.59v-1.901h1.59V24.3411z"/><path d="M49,7.5964c-0.7889,0-1.4257,0.6464-1.4257,1.4257c0,0.7889,0.6369,1.4257,1.4257,1.4257   c0.7795,0,1.4257-0.6368,1.4257-1.4257C50.4257,8.2428,49.7795,7.5964,49,7.5964z"/><path d="M89.8143,11.0277H61.2044c-0.2186-2.5759-1.3212-4.9711-3.1652-6.8151C55.9672,2.1406,53.2203,1,50.2833,1h-2.5664   c-5.7314,0-10.4459,4.4103-10.9307,10.0277H8.1858c-2.6519,0-4.8096,2.1576-4.8096,4.8095v61.9153   c0,2.6519,2.1576,4.8095,4.8096,4.8095h81.6285c2.6518,0,4.8094-2.1576,4.8094-4.8095V15.8372   C94.6238,13.1853,92.4661,11.0277,89.8143,11.0277z M43.1926,76.5263H8.9653V34.0677h34.2273V76.5263z M43.1926,30.0566H8.9653   V16.7212h34.2273V30.0566z M49.9489,70.0586h-1.901v-1.901h1.901V70.0586z M49.9489,66.2566h-1.901v-1.901h1.901V66.2566z    M49.9489,62.4546h-1.901v-1.901h1.901V62.4546z M49.9489,58.6527h-1.901v-1.901h1.901V58.6527z M49.9489,54.8507h-1.901v-1.901   h1.901V54.8507z M49.9489,51.0487h-1.901v-1.901h1.901V51.0487z M49.9489,47.2467h-1.901v-1.901h1.901V47.2467z M49.9489,43.4447   h-1.901v-1.901h1.901V43.4447z M49.9489,39.6428h-1.901v-1.901h1.901V39.6428z M49,12.3489c-1.5017,0-2.7659-0.998-3.1746-2.3667   h-3.4788v-1.901h3.4788C46.2341,6.703,47.4983,5.6954,49,5.6954c1.5019,0,2.7565,1.0076,3.1652,2.3858h3.4882v1.901h-3.4882   C51.7565,11.3509,50.5019,12.3489,49,12.3489z M89.035,76.5263H54.7981V34.0677H89.035V76.5263z M89.035,30.0566H54.7981V16.7212   H89.035V30.0566z"/><path d="M87.134,18.6222H56.6991v9.5334H87.134V18.6222z M63.5166,24.3411h-1.901v-1.901h1.901V24.3411z M67.3186,24.3411h-1.901   v-1.901h1.901V24.3411z M71.1206,24.3411h-1.901v-1.901h1.901V24.3411z M74.9226,24.3411h-1.901v-1.901h1.901V24.3411z    M78.7245,24.3411h-1.901v-1.901h1.901V24.3411z M82.2156,24.3411h-1.59v-1.901h1.59V24.3411z"/><path d="M41.2916,35.9687H10.8663v38.6566h30.4254V35.9687z M35.025,56.2467h-0.9505H19.0364v12.2534h15.0381v1.901h-16.939   V54.3457h0.9505H33.124V42.0923H18.0859v-1.901h16.939V56.2467z"/><polygon points="61.2425,84.463 59.3415,84.463 59.3415,91.8293 41.7573,91.8293 41.7573,84.463 39.8564,84.463 39.8564,91.8293    36.0733,91.8293 36.0733,93.7303 39.8564,93.7303 39.8564,97 41.7573,97 41.7573,93.7303 59.3415,93.7303 59.3415,97 61.2425,97    61.2425,93.7303 65.0255,93.7303 65.0255,91.8293 61.2425,91.8293  "/></g><text x="0" y="113" fill="#000000" font-size="5px" font-weight="bold" font-family="'Helvetica Neue', Helvetica, Arial-Unicode, Arial, Sans-serif">Created by ProSymbols</text><text x="0" y="118" fill="#000000" font-size="5px" font-weight="bold" font-family="'Helvetica Neue', Helvetica, Arial-Unicode, Arial, Sans-serif">from the Noun Project</text></svg>