<svg xmlns="http://www.w3.org/2000/svg" xmlns:xlink="http://www.w3.org/1999/xlink" version="1.1" x="0px" y="0px" viewBox="0 0 64 80" style="enable-background:new 0 0 64 64;" xml:space="preserve"><g><path d="M57,3H39V1H25v2H7v58h18v2h14v-2h18V3z M27,3h10v2H27V3z M32,11c1.654,0,3,1.346,3,3s-1.346,3-3,3s-3-1.346-3-3   S30.346,11,32,11z M32,9c-0.342,0-0.677,0.035-1,0.101V7h2v2.101C32.677,9.035,32.342,9,32,9z M29,7v3.026   c-1.207,0.914-2,2.348-2,3.974c0,2.757,2.243,5,5,5s5-2.243,5-5c0-1.627-0.793-3.061-2-3.974V7h4V5h4v9c0,3.859-3.141,7-7,7h-8   c-3.859,0-7-3.141-7-7V5h4v2H29z M19,5v9c0,4.963,4.037,9,9,9h8c4.963,0,9-4.037,9-9V5h10v26H38.92c-0.488-3.386-3.401-6-6.92-6   s-6.432,2.614-6.92,6h-6C19.033,30.672,19,30.34,19,30v-4.586l2.293,2.293l1.414-1.414L18,21.586l-4.707,4.707l1.414,1.414   L17,25.414V30c0,0.338,0.022,0.671,0.059,1H9V5H19z M32,37c-2.414,0-4.434-1.721-4.899-4h9.798C36.434,35.279,34.414,37,32,37z    M25.08,33c0.224,1.556,0.957,2.949,2.031,4H26c-2.785,0-5.188-1.639-6.315-4H25.08z M27.101,31c0.465-2.279,2.484-4,4.899-4   s4.434,1.721,4.899,4H27.101z M37,61H27v-2h10V61z M32,53c-1.654,0-3-1.346-3-3s1.346-3,3-3s3,1.346,3,3S33.654,53,32,53z M32,55   c0.342,0,0.677-0.035,1-0.101V57h-2v-2.101C31.323,54.965,31.658,55,32,55z M35,57v-3.026c1.207-0.914,2-2.348,2-3.974   c0-2.757-2.243-5-5-5s-5,2.243-5,5c0,1.627,0.793,3.061,2,3.974V57h-4v2h-4v-9c0-3.859,3.141-7,7-7h8c3.859,0,7,3.141,7,7v9h-4v-2   H35z M45,59v-9c0-4.963-4.037-9-9-9h-8c-4.963,0-9,4.037-9,9v9H9V33h8.525c1.239,3.49,4.565,6,8.475,6h17v-2h-6.111   c1.074-1.051,1.807-2.444,2.031-4H55v26H45z"/><polygon points="52.293,34.293 50,36.586 47.707,34.293 46.293,35.707 48.586,38 46.293,40.293 47.707,41.707 50,39.414    52.293,41.707 53.707,40.293 51.414,38 53.707,35.707  "/><polygon points="16.293,36.293 14,38.586 11.707,36.293 10.293,37.707 12.586,40 10.293,42.293 11.707,43.707 14,41.414    16.293,43.707 17.707,42.293 15.414,40 17.707,37.707  "/><path d="M49,29c2.206,0,4-1.794,4-4s-1.794-4-4-4s-4,1.794-4,4S46.794,29,49,29z M49,23c1.103,0,2,0.897,2,2s-0.897,2-2,2   s-2-0.897-2-2S47.897,23,49,23z"/><path d="M14,18c1.654,0,3-1.346,3-3s-1.346-3-3-3s-3,1.346-3,3S12.346,18,14,18z M14,14c0.552,0,1,0.448,1,1s-0.448,1-1,1   s-1-0.448-1-1S13.448,14,14,14z"/><path d="M50,49c-1.654,0-3,1.346-3,3s1.346,3,3,3s3-1.346,3-3S51.654,49,50,49z M50,53c-0.552,0-1-0.448-1-1s0.448-1,1-1   s1,0.448,1,1S50.552,53,50,53z"/></g><text x="0" y="79" fill="#000000" font-size="5px" font-weight="bold" font-family="'Helvetica Neue', Helvetica, Arial-Unicode, Arial, Sans-serif">Created by Eucalyp</text><text x="0" y="84" fill="#000000" font-size="5px" font-weight="bold" font-family="'Helvetica Neue', Helvetica, Arial-Unicode, Arial, Sans-serif">from the Noun Project</text></svg>