<svg class="svg-icon" xmlns="http://www.w3.org/2000/svg" xmlns:xlink="http://www.w3.org/1999/xlink" version="1.1" x="0px" y="0px" viewBox="0 0 64 80" style="enable-background:new 0 0 64 64;" xml:space="preserve"><path d="M54,31H38.38C41.33,27.716,43,23.469,43,19c0-9.925-8.075-18-18-18S7,9.075,7,19c0,4.469,1.67,8.716,4.62,12H10  c-1.654,0-3,1.346-3,3v2c0,1.654,1.346,3,3,3h1.265C13.737,46.652,15,54.602,15,62.649V63h2v-0.351c0-0.08-0.005-0.159-0.005-0.239  l0.612,0.612h1.807l3.597-3.597l3.597,3.597h1.807l3.597-3.597l3.597,3.597h1.807l3.597-3.597l3.597,3.597h1.807l0.59-0.59  c0,0.073-0.004,0.145-0.004,0.217V63h2v-0.351c0-8.047,1.263-15.997,3.735-23.649H54c1.654,0,3-1.346,3-3v-2  C57,32.346,55.654,31,54,31z M9.055,20h11.982c0.064,1.92,0.288,3.695,0.635,5.287c-3.496,0.574-6.572,2.042-8.724,4.192  C10.645,26.835,9.275,23.52,9.055,20z M21.67,12.713c-0.347,1.601-0.575,3.366-0.637,5.287H9.051c0.225-3.618,1.65-6.91,3.892-9.484  C15.094,10.669,18.172,12.138,21.67,12.713z M25,13c4.842,0,9.242-1.667,12.057-4.484c2.242,2.575,3.667,5.866,3.892,9.484H23.033  c0.066-1.844,0.301-3.533,0.649-5.062C24.12,12.966,24.555,13,25,13z M24.21,10.963c1.227-3.928,3.067-6.535,3.966-7.644  c2.838,0.574,5.394,1.912,7.474,3.774C33.223,9.515,29.255,11,25,11C24.734,11,24.474,10.974,24.21,10.963z M37.052,29.479  C34.237,26.665,29.839,25,25,25c-0.448,0-0.885,0.034-1.325,0.062c-0.344-1.517-0.573-3.213-0.639-5.062h17.909  C40.725,23.52,39.355,26.835,37.052,29.479z M14.451,31c-0.035-0.03-0.066-0.064-0.1-0.094c1.878-1.873,4.677-3.173,7.824-3.668  c0.421,1.431,0.913,2.685,1.413,3.763H14.451z M25.812,31c-0.553-1.078-1.119-2.403-1.604-3.963C24.472,27.026,24.733,27,25,27  c4.254,0,8.222,1.485,10.649,3.906c-0.034,0.031-0.066,0.064-0.1,0.094H25.812z M25.863,3.044c-1.122,1.561-2.651,4.155-3.696,7.718  c-3.144-0.496-5.941-1.796-7.817-3.668C17.182,4.557,20.908,3,25,3C25.291,3,25.576,3.028,25.863,3.044z M48.11,49.497l-2.6,2.6  l-3.086-3.086l3.086-3.086l2.75,2.75C48.211,48.949,48.157,49.223,48.11,49.497z M47.619,52.817  c-0.052,0.416-0.094,0.833-0.139,1.25l-0.555-0.555L47.619,52.817z M41.011,47.597l-3.086-3.086l3.086-3.086l3.086,3.086  L41.011,47.597z M39.597,49.011l-0.256,0.256l-2.83,2.83l-3.086-3.086l3.086-3.086L39.597,49.011z M28.925,53.511l3.086-3.086  l3.086,3.086l-3.086,3.086L28.925,53.511z M32.011,47.597l-3.086-3.086l3.086-3.086l3.086,3.086L32.011,47.597z M30.597,49.011  l-3.086,3.086l-2.83-2.83l-0.256-0.256l3.086-3.086L30.597,49.011z M23.011,47.597l-3.086-3.086l3.086-3.086l3.086,3.086  L23.011,47.597z M17.097,44.511l-1.812,1.812c-0.341-1.61-0.735-3.21-1.177-4.8L17.097,44.511z M15.885,49.471  c-0.044-0.26-0.096-0.519-0.142-0.778l2.768-2.768l3.086,3.086l-3.086,3.086L15.885,49.471z M17.097,53.511l-0.575,0.574  c-0.047-0.431-0.091-0.863-0.145-1.294L17.097,53.511z M23.011,50.425l0.402,0.402l2.684,2.684l-3.086,3.086l-3.086-3.086  L23.011,50.425z M40.609,50.827l0.402-0.402l3.086,3.086l-3.086,3.086l-3.086-3.086L40.609,50.827z M46.925,44.511l2.959-2.959  c-0.437,1.574-0.827,3.159-1.165,4.753L46.925,44.511z M47.586,39l1.011,1.011l-3.086,3.086l-3.086-3.086L43.436,39H47.586z   M38.586,39l1.011,1.011l-3.086,3.086l-3.086-3.086L34.436,39H38.586z M29.586,39l1.011,1.011l-3.086,3.086l-3.086-3.086L25.436,39  H29.586z M20.586,39l1.011,1.011l-3.086,3.086l-3.086-3.086L16.436,39H20.586z M18.586,61.022h-0.15l-1.498-1.499  c-0.038-0.954-0.098-1.905-0.17-2.855l1.743-1.743l3.086,3.086L18.586,61.022z M24.425,58.011l3.086-3.086l3.086,3.086l-3.011,3.011  h-0.15L24.425,58.011z M36.586,61.022h-0.15l-3.011-3.011l3.086-3.086l3.086,3.086L36.586,61.022z M45.586,61.022h-0.15  l-3.011-3.011l3.086-3.086l1.723,1.723c-0.073,0.964-0.134,1.93-0.172,2.897L45.586,61.022z M55,36c0,0.551-0.448,1-1,1H10  c-0.552,0-1-0.449-1-1v-2c0-0.551,0.448-1,1-1h44c0.552,0,1,0.449,1,1V36z"/><text x="0" y="79" fill="#000000" font-size="5px" font-weight="bold" font-family="'Helvetica Neue', Helvetica, Arial-Unicode, Arial, Sans-serif">Created by Eucalyp</text><text x="0" y="84" fill="#000000" font-size="5px" font-weight="bold" font-family="'Helvetica Neue', Helvetica, Arial-Unicode, Arial, Sans-serif">from the Noun Project</text></svg>