<svg class="svg-icon" xmlns="http://www.w3.org/2000/svg" xmlns:xlink="http://www.w3.org/1999/xlink" version="1.1" x="0px" y="0px" viewBox="0 0 96 120" enable-background="new 0 0 96 96" xml:space="preserve"><g><path d="M33.328,72.676l10.474,9.304l6.465-7.279l-10.474-9.304L33.328,72.676z M48.872,74.783l-5.153,5.802l-8.996-7.992   l5.153-5.802L48.872,74.783z"/><path d="M40.404,88h7.993l-4.471-3.969L40.404,88z M45.797,87.013h-3.195l1.408-1.587L45.797,87.013z"/><path d="M44.894,82.943L50.591,88h8.402l1.013-4.659l-8.646-7.681L44.894,82.943z M58.918,83.695l-0.721,3.317h-7.232l-4.677-4.152   l5.154-5.806L58.918,83.695z"/><path d="M58.378,65.569l-10.479-9.301l-7.139,8.042l10.478,9.302L58.378,65.569z M42.155,64.228l5.827-6.564l9.001,7.989   l-5.828,6.565L42.155,64.228z"/><path d="M63.344,68.024l1.688-7.758l-4.599,5.176L63.344,68.024z M62.737,66.166l-0.909-0.807l1.438-1.617L62.737,66.166z"/><path d="M52.326,74.574l8.037,7.136l2.623-12.055l-3.518-3.127L52.326,74.574z M61.898,70.01l-2.141,9.84l-6.037-5.358l5.831-6.568   L61.898,70.01z"/><path d="M32.363,73.762l-2.747,3.094l2.315,10.631L32.508,88h5.949l4.384-4.938L32.363,73.762z M38.014,87.013h-5.13l-2.196-9.878   l1.759-1.979l9,7.989L38.014,87.013z"/><polygon points="28.121,69.994 29.232,75.093 31.276,72.795  "/><path d="M38.707,64.426l-10.476-9.303l-2.688,3.028l2.053,9.426l4.647,4.129L38.707,64.426z M28.493,67.053l-1.878-8.622   l1.699-1.913l8.998,7.991l-5.151,5.802L28.493,67.053z"/><path d="M64.389,47.403H26.553c-1.104,0-8.035-0.011-9.956-0.015V12.03l-0.003-0.114c0.002-0.029,0.003-0.058,0.003-0.087   c0-2.147-1.129-3.829-2.57-3.829c-1.375,0-2.465,1.531-2.563,3.536l-0.007,60.329h5.14V54.761h8.206l0.355,1.632l1.984-2.236   l-1.066-0.947l0.322-0.362c0.051,0.004,0.103,0.006,0.153,0.006h1.325l0.238,0.198l0.183-0.198h1.949l-1.049,1.178l10.475,9.307   l7.141-8.042l-2.751-2.443h2.193l1.525,1.354l1.201-1.354h1.948l-2.06,2.318l10.475,9.305l6.328-7.128l-5.063-4.495h2.193   l3.217,2.858l0.296-1.337l0.011-2.278c0.563-0.516,0.882-1.219,0.882-1.964c0.001-0.711-0.278-1.384-0.789-1.895   C65.884,47.699,65.162,47.403,64.389,47.403z M65.534,51.472L65.34,51.62v2.164l-2.16-1.92h-5.17l6.27,5.565l-5.017,5.65   l-8.997-7.993l2.863-3.223h-4.59l-0.841,0.946l-1.065-0.946h-5.17l3.956,3.514l-5.829,6.564l-8.996-7.993l1.854-2.084h-5.896   c-0.095,0-0.186-0.015-0.276-0.028l-0.266-0.041l-1.328,1.496l0.542,0.481h-9.615v17.103h-3.164V12.523h0.042l-0.042-0.694   c0-1.541,0.725-2.841,1.582-2.841s1.582,1.301,1.577,2.914l0.005,36.473l0.493,0.001c0,0,9.166,0.016,10.451,0.016h37.836   c0.51,0,0.983,0.193,1.332,0.543c0.323,0.323,0.502,0.747,0.501,1.195C66.222,50.647,65.971,51.138,65.534,51.472z"/><path d="M84.543,29.79h-0.006l-0.008-0.284c-0.109-3.976-1.808-7.627-4.783-10.281l-0.142-0.126l0.015-0.012l-0.482-0.384   c-2.438-1.941-5.38-3.013-8.511-3.099l-0.283-0.007v-0.004l-0.076,0.002l-0.148-0.004v0.008l-0.282,0.007   c-3.2,0.086-6.194,1.196-8.659,3.209l-0.455,0.373l0.016,0.013l-0.168,0.154c-2.883,2.643-4.528,6.248-4.636,10.15l-0.008,0.285   h-0.004l0.002,0.075l-0.004,0.147h0.008l0.008,0.285c0.107,3.903,1.753,7.508,4.636,10.15l0.166,0.152l-0.019,0.016l0.456,0.373   c2.462,2.013,5.457,3.124,8.661,3.211l0.282,0.008v0.005l0.102-0.003l0.123,0.003v-0.007l0.283-0.008   c3.133-0.086,6.075-1.158,8.509-3.099l0.482-0.385l-0.012-0.009l0.141-0.125c2.974-2.651,4.672-6.303,4.783-10.283l0.008-0.285   h0.006l-0.003-0.111L84.543,29.79z M60.919,20.383c1.829,1.525,4.651,3.258,8.222,3.5c0.071,0.005,0.142,0.009,0.213,0.012v5.13   H56.944C57.157,25.732,58.554,22.694,60.919,20.383z M69.355,43.188c-2.591-0.166-5.019-1.056-7.081-2.594   c1.629-1.303,4.049-2.729,6.989-2.927c0.03-0.002,0.061-0.004,0.092-0.005V43.188z M69.355,35.909   c-0.071,0.003-0.142,0.008-0.213,0.013c-3.569,0.242-6.392,1.973-8.221,3.497c-2.367-2.311-3.764-5.348-3.976-8.642l12.409,0.001   V35.909z M69.355,22.141c-0.03-0.002-0.06-0.003-0.091-0.006c-2.945-0.199-5.362-1.624-6.988-2.926   c2.064-1.54,4.491-2.429,7.079-2.594V22.141z M71.106,16.614c2.514,0.162,4.883,1.012,6.913,2.48   c-2.31,1.748-4.631,2.756-6.913,3.002V16.614z M71.106,43.188v-5.481c2.284,0.248,4.604,1.255,6.911,3.002   C75.991,42.175,73.622,43.025,71.106,43.188z M79.395,39.562c-2.729-2.145-5.514-3.358-8.288-3.613v-5.172l12.412,0.001   C83.3,34.147,81.851,37.236,79.395,39.562z M71.106,29.025v-5.168c2.775-0.257,5.56-1.471,8.288-3.614   c2.458,2.328,3.906,5.416,4.124,8.782H71.106z"/></g><text x="0" y="111" fill="#000000" font-size="5px" font-weight="bold" font-family="'Helvetica Neue', Helvetica, Arial-Unicode, Arial, Sans-serif">Created by fahmionline</text><text x="0" y="116" fill="#000000" font-size="5px" font-weight="bold" font-family="'Helvetica Neue', Helvetica, Arial-Unicode, Arial, Sans-serif">from the Noun Project</text></svg>